<?xml version="1.0" encoding="UTF-8"?>
<svg width="500px" height="500px" viewBox="0 0 500 500" version="1.1" xmlns="http://www.w3.org/2000/svg" xmlns:xlink="http://www.w3.org/1999/xlink">
    <title>ada@3x</title>
    <g id="Page-1" stroke="none" stroke-width="1" fill="none" fill-rule="evenodd">
        <g id="ada">
            <rect id="Rectangle" fill="#FFFFFF" x="0" y="0" width="500" height="500"></rect>
            <g id="cardano-ada-logo-1" fill="#0033AD" fill-rule="nonzero">
                <path d="M137.071718,248.196402 C136.005099,268.25241 150.271128,285.422662 168.803632,286.576965 C169.470269,286.576965 170.136906,286.576965 170.803543,286.576965 C189.469374,286.576965 204.535367,270.27244 204.40204,250.072144 C204.40204,229.871848 189.336047,213.567323 170.670215,213.711611 C152.804348,213.711611 138.00501,228.861833 137.071718,248.196402 Z" id="Path"></path>
                <path d="M11.4773368,238.817693 C5.47760524,238.38483 0.277837848,243.434904 0.0111831098,249.927856 C-0.255471628,256.420808 4.27765892,262.048034 10.2773905,262.336609 C16.2771221,262.769473 21.3435622,257.719399 21.7435443,251.226447 C22.1435264,244.733494 17.4770684,239.250557 11.4773368,238.817693 C11.4773368,238.817693 11.4773368,238.817693 11.4773368,238.817693 Z" id="Path"></path>
                <path d="M134.938481,36.6704442 C140.271575,33.7846876 142.404813,26.5702962 139.738266,20.798783 C137.071718,15.0272698 130.40535,12.7186645 125.072255,15.6044211 C119.73916,18.4901777 117.605923,25.5602814 120.27247,31.3317945 C122.939017,37.2475955 129.472058,39.7004886 134.938481,36.6704442 C134.805153,36.6704442 134.938481,36.6704442 134.938481,36.6704442 Z" id="Path"></path>
                <path d="M169.070287,101.167104 C177.336584,96.6941813 180.669768,85.7283062 176.53662,76.7824608 C172.403471,67.8366154 162.270591,64.2294196 154.004294,68.7023424 C145.737997,73.1752651 142.404813,84.1411401 146.537962,93.0869855 C150.67111,102.032831 160.80399,105.640027 169.070287,101.167104 Z" id="Path"></path>
                <path d="M54.1420949,145.463468 C60.5418086,149.93639 69.0747603,148.060649 73.3412361,141.134833 C77.4743845,134.209017 75.7411287,124.974596 69.341415,120.357385 C62.9417013,115.884463 54.4087497,117.760204 50.1422739,124.68602 C50.1422739,124.68602 50.1422739,124.68602 50.1422739,124.68602 C45.875798,131.611836 47.7423812,140.990545 54.1420949,145.463468 Z" id="Path"></path>
                <path d="M74.5411824,232.324741 C65.2082666,231.74759 57.3419518,239.394845 56.8086423,249.494993 C56.2753328,259.595141 63.3416834,268.108123 72.6745992,268.685274 C82.007515,269.262425 89.8738298,261.61517 90.4071393,251.515022 C90.4071393,251.515022 90.4071393,251.515022 90.4071393,251.515022 C90.9404488,241.559162 83.8740982,232.901892 74.5411824,232.324741 Z" id="Path"></path>
                <path d="M56.0086781,354.536532 C49.2089823,358.288016 46.4091075,367.233861 49.8756191,374.736829 C53.3421307,382.095508 61.6084276,385.125552 68.5414508,381.374069 C75.3411466,377.622585 78.1410213,368.67674 74.6745098,361.173773 C74.6745098,361.173773 74.6745098,361.173773 74.6745098,361.173773 C71.2079982,353.815093 62.8083739,350.785049 56.0086781,354.536532 C56.0086781,354.536532 56.0086781,354.536532 56.0086781,354.536532 Z" id="Path"></path>
                <path d="M121.339089,194.665617 C130.538677,201.15857 142.804795,198.417101 148.6712,188.461241 C154.670931,178.505381 152.137711,165.2309 142.938123,158.882236 C133.738534,152.389283 121.472416,155.130752 115.606012,165.086612 C109.60628,174.898185 112.1395,188.172665 121.339089,194.665617 C121.339089,194.665617 121.339089,194.665617 121.339089,194.665617 Z" id="Path"></path>
                <path d="M328.663148,99.7242257 C336.396135,105.207163 346.928997,102.898558 351.995437,94.5298638 C357.061877,86.1611697 354.928639,74.7624312 347.195652,69.2794937 C339.462665,63.7965562 328.929802,66.1051614 323.863362,74.4738555 C323.863362,74.4738555 323.863362,74.4738555 323.863362,74.4738555 C318.663595,82.9868375 320.796833,94.2412882 328.663148,99.7242257 C328.663148,99.7242257 328.663148,99.7242257 328.663148,99.7242257 Z" id="Path"></path>
                <path d="M363.061609,35.5161416 C368.128049,39.1233373 374.794417,37.5361712 378.127602,32.0532337 C381.460786,26.5702962 379.994185,19.3559047 374.927745,15.748709 C369.861305,12.1415132 363.194936,13.7286793 359.861752,19.067329 C356.661895,24.5502666 358.128496,31.9089459 363.061609,35.5161416 C363.061609,35.5161416 363.061609,35.5161416 363.061609,35.5161416 Z" id="Path"></path>
                <path d="M331.196368,213.423035 C312.663863,212.268733 296.664579,227.70753 295.731288,247.763539 C294.664669,267.819547 308.930697,285.134086 327.463201,286.144101 C328.129838,286.144101 328.796475,286.144101 329.329785,286.144101 C347.862289,286.144101 362.928282,269.839577 362.928282,249.63928 C363.061609,230.448999 349.062235,214.43305 331.196368,213.423035 L331.196368,213.423035 Z" id="Path"></path>
                <path d="M180.136459,192.068436 C185.869536,204.332902 197.469017,212.124445 210.268444,212.124445 C228.800948,212.124445 243.866941,195.81992 243.866941,175.619624 C243.866941,169.992399 242.666995,164.365173 240.267102,159.170811 C231.867478,141.134833 211.601718,133.920441 195.069124,143.010574 C178.403203,152.244996 171.736834,174.176746 180.136459,192.068436 L180.136459,192.068436 Z" id="Path"></path>
                <path d="M443.991322,145.463468 C450.791018,141.711984 453.457565,132.621851 449.991054,125.263171 C446.524542,117.904492 438.124918,115.018736 431.325222,118.770219 C424.525526,122.521703 421.858979,131.467548 425.192163,138.826227 C428.792002,146.184907 437.058299,149.214951 443.991322,145.463468 C443.991322,145.463468 443.991322,145.463468 443.991322,145.463468 Z" id="Path"></path>
                <path d="M358.661806,157.006494 C348.928908,162.345144 344.929087,175.18676 349.862199,185.719772 C354.795312,196.252784 366.661448,200.581418 376.394346,195.242769 C386.127244,189.904119 390.127065,177.062502 385.193952,166.529491 C380.26084,155.996479 368.394704,151.812132 358.661806,157.006494 Z" id="Path"></path>
                <path d="M248.666726,30.0332041 C256.266386,30.4660676 262.799427,24.1174031 263.332737,15.8929968 C263.866046,7.66859051 257.866315,0.598486871 250.266655,0.0213355536 C242.666995,-0.411527935 236.133954,5.79284873 235.600644,14.017255 C235.200662,22.3859491 241.067066,29.4560528 248.666726,30.0332041 C248.666726,30.0332041 248.666726,30.0332041 248.666726,30.0332041 Z" id="Path"></path>
                <path d="M248.533399,124.253157 C259.466243,124.974596 268.799159,115.884463 269.332469,104.052861 C269.999105,92.2212585 261.599481,82.1211105 250.666637,81.5439592 C239.733793,80.82252 230.400877,89.9126533 229.867567,101.744255 C229.334258,113.575857 237.600555,123.676005 248.533399,124.253157 C248.533399,124.253157 248.533399,124.253157 248.533399,124.253157 Z" id="Path"></path>
                <path d="M141.338194,342.993506 C151.071092,337.654856 155.070913,324.81324 150.137801,314.280228 C145.204688,303.747216 133.338552,299.418582 123.605654,304.757231 C113.872756,310.095881 109.872935,322.937498 114.806048,333.470509 C119.73916,344.003521 131.605296,348.332156 141.338194,342.993506 Z" id="Path"></path>
                <path d="M261.332826,155.563616 C251.199946,172.445292 255.466422,194.954193 271.065724,205.920068 C286.665026,216.885943 307.464096,212.268733 317.596976,195.387057 C327.729856,178.505381 323.46338,155.996479 307.864078,145.030604 C302.397656,141.134833 295.997942,139.114803 289.464901,139.114803 C278.132075,139.114803 267.599213,145.31918 261.332826,155.563616 Z" id="Path"></path>
                <path d="M319.863541,307.931564 C311.463917,289.895585 291.198157,282.681193 274.665563,291.771327 C257.999642,300.86146 251.333274,322.79321 259.732898,340.684901 C268.132522,358.720879 288.398282,365.935271 304.930876,356.845138 C304.930876,356.845138 304.930876,356.845138 304.930876,356.845138 C321.46347,347.899292 328.263166,326.256118 319.996869,308.220139 C319.996869,308.075851 319.996869,308.075851 319.863541,307.931564 Z" id="Path"></path>
                <path d="M378.660911,305.334383 C369.461323,298.84143 357.195205,301.582899 351.3288,311.538759 C345.329069,321.494619 347.862289,334.7691 357.061877,341.117764 C366.261466,347.610717 378.527584,344.869248 384.393988,334.913388 C390.39372,325.101815 387.8605,311.827335 378.660911,305.334383 C378.660911,305.334383 378.660911,305.334383 378.660911,305.334383 Z" id="Path"></path>
                <path d="M443.191358,250.649295 C443.724667,240.549147 436.658317,232.036165 427.325401,231.459014 C417.992485,230.881863 410.12617,238.529118 409.592861,248.629266 C409.059551,258.729414 416.125902,267.242396 425.458818,267.819547 C425.458818,267.819547 425.458818,267.819547 425.458818,267.819547 C434.658406,268.396698 442.658048,260.605155 443.191358,250.649295 Z" id="Path"></path>
                <path d="M489.722609,237.663391 C483.722878,237.230527 478.52311,242.280601 478.256456,248.773553 C477.989801,255.266506 482.522932,260.893731 488.522663,261.182307 C494.522395,261.61517 499.588835,256.565096 499.988817,250.072144 C500.255472,243.579192 495.722341,238.096254 489.722609,237.663391 Z" id="Path"></path>
                <path d="M445.857905,354.536532 C439.458191,350.06361 430.92524,351.939351 426.658764,358.865167 C422.525615,365.790983 424.258871,375.025404 430.658585,379.642615 C437.058299,384.115537 445.59125,382.239796 449.857726,375.31398 C454.124202,368.388164 452.257619,359.009455 445.857905,354.536532 C445.857905,354.536532 445.857905,354.536532 445.857905,354.536532 Z" id="Path"></path>
                <path d="M136.805064,464.483858 C131.738624,460.876663 125.072255,462.463829 121.739071,467.802478 C118.405887,473.285416 119.872488,480.499807 124.805601,484.107003 C129.872041,487.714199 136.538409,486.127033 139.871593,480.788383 C139.871593,480.788383 139.871593,480.788383 139.871593,480.788383 C143.338105,475.449733 141.871504,468.091054 136.805064,464.483858 Z" id="Path"></path>
                <path d="M365.061519,463.329556 C359.728425,466.215312 357.595187,473.429704 360.261734,479.201217 C362.928282,484.97273 369.59465,487.281335 374.927745,484.395579 C380.26084,481.509822 382.394077,474.439719 379.72753,468.668205 C377.060983,462.752404 370.527942,460.299511 365.061519,463.329556 C365.194847,463.329556 365.061519,463.329556 365.061519,463.329556 Z" id="Path"></path>
                <path d="M238.667174,344.436384 C248.800054,327.554708 244.533578,305.045807 228.934276,293.935644 C213.334974,282.969769 192.535904,287.58698 182.269697,304.468656 C172.003489,321.350332 176.403292,343.859233 192.002594,354.969396 C197.469017,358.865167 203.86873,360.885197 210.401771,360.885197 C221.867925,361.029485 232.400787,354.825108 238.667174,344.436384 Z" id="Path"></path>
                <path d="M171.336852,400.275774 C163.603865,394.792837 153.071003,397.101442 148.004563,405.470136 C142.938123,413.83883 145.071361,425.237569 152.804348,430.720506 C160.537335,436.203444 171.070198,433.894839 176.136638,425.526144 C176.136638,425.526144 176.136638,425.526144 176.136638,425.526144 C181.336405,417.15745 179.203167,405.758712 171.336852,400.275774 Z" id="Path"></path>
                <path d="M249.866673,469.966796 C242.267013,469.533932 235.733972,475.882597 235.200662,484.107003 C234.667353,492.331409 240.667084,499.401513 248.266744,499.978664 C255.866404,500.411528 262.399445,494.207151 262.932755,485.982745 C263.332737,477.614051 257.466333,470.543947 249.866673,469.966796 C249.866673,469.966796 249.866673,469.966796 249.866673,469.966796 Z" id="Path"></path>
                <path d="M250,375.746843 C239.067156,375.025404 229.73424,384.115537 229.20093,395.947139 C228.534294,407.778741 236.933918,417.87889 247.866762,418.456041 C258.799606,419.033192 268.132522,410.087347 268.665832,398.255745 C269.332469,386.568431 260.932844,376.323995 250,375.746843 C250,375.746843 250,375.746843 250,375.746843 Z" id="Path"></path>
                <path d="M330.929713,398.832896 C322.663416,403.450107 319.330232,414.415982 323.596708,423.361827 C327.863184,432.307672 337.996064,435.914868 346.26236,431.297658 C354.528657,426.824735 357.861842,415.85886 353.728693,406.913014 C349.462217,397.967169 339.329337,394.215685 330.929713,398.832896 C330.929713,398.832896 330.929713,398.832896 330.929713,398.832896 Z" id="Path"></path>
            </g>
        </g>
    </g>
</svg>